<svg xmlns="http://www.w3.org/2000/svg" xmlns:xlink="http://www.w3.org/1999/xlink"
     viewBox="0.0016738176345825195 0.0008938312530517578 118.75411224365234 98.84217071533203">
    <defs >
        <linearGradient id="e2dcae33-0fe3-40df-97eb-9a1c8274d5bf" x1="24.06" y1="78.68" x2="90.68" y2="12.06"
                        gradientTransform="matrix(1, 0, 0, -1, 0, 100)" gradientUnits="userSpaceOnUse">
            <stop offset="0" stop-color="#ffb2c2"></stop>
            <stop offset="1" stop-color="#f85e8a"></stop>
        </linearGradient>
    </defs>
    <title>7625</title>
    <g id="b8ad90bb-7045-45a8-9922-10a7381d5ace">
        <g id="b1f58432-a506-450e-8258-d396f4b60eab">
            <path d="M30 40A 444 70 -70 0 1 90 80L 40 90"
                  fill="#e2ebf0"></path>
            <path d="M67.86,14.94c-11.71.17-27.19,3.48-26.89,16.9.28,12.47,12.36,11.73,18,12,8.08.33,11,3.35,9.4,8.82-2.26,7.86-12.53,5.69-20,2.07S32.56,58.15,36.19,66.07s27.39,20.72,42.88,9.56c13.25-9.54,14.23-28,2.77-35.37-7.23-4.64-14.68-3.58-15.39-9.13-.52-4.05,3.76-7.07,11-7.78,17.42-1.71,32.34,9.88,29.94,30.35-2.86,24.5-19.28,48-55.9,44.86s-44.6-33.1-40.2-52.12c4.86-21,21-40.74,50.12-40.74C76.77,5.7,78.91,14.77,67.86,14.94Z"
                  fill="url(#e2dcae33-0fe3-40df-97eb-9a1c8274d5bf)"></path>
            <path d="M36.18,66.08c-3.63-7.92,4.78-15,12.21-11.38s17.69,5.79,20-2.07C69.93,47.15,67,44.13,59,43.8c-5.62-.23-17.7.51-18-12C39.68,18.4,58.83,11,64.11,5.8c-.85-.06-1.75-.1-2.7-.1a23.05,23.05,0,0,1,2.7.1c1.31-1.29,1.77-2.46.84-3.54-4.68-5.47-45.88-3.21-53.37,32a40.4,40.4,0,0,0-.69,14.12h0c4.4,31.29,50.75,35.69,62.17,30.34C58.06,83.71,39.37,73,36.18,66.08Z"
                  fill="#ff8d27" opacity="0.5"></path>
            <path d="M107.56,46.62C97.79,42,84.18,39.84,77.63,38.1a26.14,26.14,0,0,1,4.21,2.16C93.3,47.6,92.32,66.09,79.07,75.63c-12.62,9.1-30.74,2.27-39-4.85,13.71,13.62,39.64,15,58,8.81,9.69-3.26,17.26-8.62,19.78-15.38C121,55.89,115.54,50.42,107.56,46.62Z"
                  fill="#6d59d1" opacity="0.5" style="isolation:isolate"></path>
            <path d="M40.31,96.55a85.15,85.15,0,0,1-15.78-1.44C.78,90.76.46,72.53,10.23,54.58,9.64,70.63,17.35,90,40.31,96.55ZM87.94,47.18c4.18,8.77,1.2,21.2-8.87,28.45C63.58,86.79,39.82,74,36.19,66.07S41,51.06,48.4,54.69s17.69,5.79,19.95-2.07C69.93,47.15,67,44.13,59,43.8c-5.62-.23-17.7.51-18-12-.25-11.51,11.1-15.58,21.73-16.62-17.57-.8-41.44,19.1-52.47,39.36-.59,16,7.12,35.44,30.08,42C79.87,96.29,96.48,64.51,87.94,47.18Z"
                  fill="#ff0098" opacity="0.6"></path>
            <path d="M83.22,14.05C82,11.7,96,1.64,98.65,6.86S84.41,16.4,83.22,14.05ZM8.38,48.33c.91-1.41-3.14-5.66-5.17-2.54S7.47,49.74,8.38,48.33Z"
                  fill="#f757af"></path>
            <path d="M86.89,19c-1.83-2.32,6.25-3.58,6.75-.56S88.07,20.47,86.89,19Zm14.6,62.81c2.64,1.28.18,4.42-1.5,2C99,82.43,100,81.1,101.49,81.81Z"
                  fill="#ab8eeb"></path>
            <path d="M7.87,51.5C6.39,50.44,3,49.62.93,50.93-.81,52-.61,57.65,6,54.49,9.76,52.69,8.57,52,7.87,51.5Z"
                  fill="#ffbd88"></path>
        </g>
    </g>
</svg>
